<svg xmlns="http://www.w3.org/2000/svg" viewBox="0 0 500 500"><g id="freepik--Floor--inject-143"><ellipse id="freepik--floor--inject-143" cx="250" cy="350.25" rx="229.53" ry="127.09" style="fill:#f5f5f5"></ellipse></g><g id="freepik--Shadow--inject-143"><path id="freepik--shadow--inject-143" d="M59,388c27.69,14,72.57,14,100.25,0s27.69-36.75,0-50.78-72.56-14-100.25,0S31.34,374,59,388Z" style="fill:#e6e6e6"></path><path id="freepik--shadow--inject-143" d="M441,388c-27.68,14-72.57,14-100.25,0s-27.68-36.75,0-50.78,72.57-14,100.25,0S468.66,374,441,388Z" style="fill:#e6e6e6"></path><polygon id="freepik--shadow--inject-143" points="307 346.24 250 313.33 193 346.24 250 379.14 307 346.24" style="fill:#e6e6e6"></polygon></g><g id="freepik--Characters--inject-143"><g id="freepik--character-boy--inject-143"><path d="M331.45,155.65c18.8-16.92,39-38.14,39.28-50.82-8.73-.2-10.73,0-16.44,4.33-5.08,3.86-25.93,30.25-33,34.82-9.36,2.35-26.2,5.09-34.31,5.24a5.86,5.86,0,0,1-3.91-1.44c-2.93-2.52-5.21-2.44-8.4-4-2.5-1.24-3.47-2.66-4-2.22s-1.55,2.27-.16,4.3A16.2,16.2,0,0,0,273.7,149a32.6,32.6,0,0,1-8.78-2.27c-6.73-2.7-10.08-1.86-7.39,7,1.68,5.54,6.47,8.89,20,9.24a103.78,103.78,0,0,0,14.91-.39c9.9-1.29,21.28-1.49,29.36-2.51A17.88,17.88,0,0,0,331.45,155.65Z" style="fill:#ffb3b2"></path><g id="freepik--Character--inject-143"><path d="M371.67,104.28c-6.46-1.19-14.18.5-19.33,5.49s-16.31,18-16.31,18,5.37,10.07,13.45,12.06l8-8.73Z" style="fill:#407BFF"></path><path d="M371.67,104.28c-6.46-1.19-14.18.5-19.33,5.49s-16.31,18-16.31,18,5.37,10.07,13.45,12.06l8-8.73Z" style="opacity:0.1"></path><rect x="396.18" y="343.7" width="11.47" height="16.7" style="fill:#ffb3b2"></rect><rect x="356.13" y="323.22" width="11.47" height="16.7" transform="translate(-11.19 12.64) rotate(-1.97)" style="fill:#ffb3b2"></rect><path d="M406.89,180.65c0,11,1.42,81.8,1.42,81.8.27,3.16,3.22,9,2.58,21.07-.87,16.44-2.29,62.12-2.29,62.12s-5.38,5.33-13,0c0,0-10.38-62.06-12.44-78.36-1.79-14.22-4.84-52.85-4.84-52.85l-5.84,46.37s1.87,10.69,2.29,18.24-6.74,50.22-6.74,50.22a12.54,12.54,0,0,1-12.48.48S351.15,267,350,260.15s3.28-79.5,3.28-79.5Z" style="fill:#37474f"></path><path d="M389.63,104.8c.86.21,5.79,1.37,10.48,2.61a9.1,9.1,0,0,1,6.78,8.81v64.43c-8,8.75-36.08,12.83-53.64,0V124.74c0-8.93,5-19.66,18.67-20.46Z" style="fill:#ebebeb"></path><path d="M393.49,59.08a6.1,6.1,0,0,1,5.06,1.78c2.17,2.22,1.72,6.33,0,15.78l-6.71.77Z" style="fill:#263238"></path><path d="M354.35,56.35a10.47,10.47,0,0,1-4.2-.86c-2.06-1.18-2.6,1.16-1.47,3.2a9.6,9.6,0,0,0,7.79,5.18c.06-.29,1.93-5.24,1.93-5.24Z" style="fill:#263238"></path><circle cx="364.81" cy="66.31" r="13.11" style="fill:#263238"></circle><path d="M390.34,77.41c1,.6,2.42-1.32,3.65-2.6s5.24-3,7.24,1.17-1.77,10-4.93,11c-5.44,1.71-6.26-1.78-6.26-1.78l-.41,19.63s-3.57,8.72-13.22,10-7.66-6.65-4.49-10.55v-6s-4.93.75-7.33.37c-4-.62-6.53-3.77-7.74-8.11-1.95-7-2.69-12.58-1-26.26,1.82-15,19.27-15.16,28.69-9.23S390.34,77.41,390.34,77.41Z" style="fill:#ffb3b2"></path><path d="M389.84,80.19c.47-.18,2.91-4.25,4.15-5.38,1.72-1.57-.5-15.73-.5-15.73s1.74-5.37-1.66-8.93-10-3-14.79-3.14c-5-.18-10.38-.48-17.21-3.45s-7.35-3.32-8.2-.32-1.17,9.88,2.91,14.49l3.4,1.24s1.83,1.63,8.21,2.41a66.55,66.55,0,0,0,14.42,0c1.85-.25,3.82,1,4.44,6.88C385.47,72.52,387,81.26,389.84,80.19Z" style="fill:#263238"></path><path d="M393.48,60.18l6-3.23a3.32,3.32,0,0,0-4.57-1.51A3.59,3.59,0,0,0,393.48,60.18Z" style="fill:#263238"></path><path d="M371.93,98.31s8.94-1.8,12.06-3.46a10.3,10.3,0,0,0,4.32-4.28,14,14,0,0,1-2.45,5c-2.29,2.92-13.93,5.07-13.93,5.07Z" style="fill:#f59595"></path><path d="M371.93,75.18a1.8,1.8,0,1,0,1.79-1.87A1.85,1.85,0,0,0,371.93,75.18Z" style="fill:#263238"></path><path d="M373.63,79.86a.25.25,0,1,0,.5,0,.25.25,0,1,0-.5,0Z" style="fill:#f59595"></path><path d="M375.64,78.72a.25.25,0,0,0,.25.26.26.26,0,0,0,.26-.26.26.26,0,1,0-.51,0Z" style="fill:#f59595"></path><path d="M376.66,80.72a.24.24,0,0,0,.25.26.26.26,0,0,0,.26-.26.26.26,0,0,0-.26-.26A.26.26,0,0,0,376.66,80.72Z" style="fill:#f59595"></path><path d="M378.33,79a.27.27,0,0,0,.26.27.26.26,0,0,0,.25-.27.26.26,0,0,0-.25-.26A.26.26,0,0,0,378.33,79Z" style="fill:#f59595"></path><path d="M370.8,78.46a.25.25,0,1,0,.5,0,.25.25,0,1,0-.5,0Z" style="fill:#f59595"></path><path d="M371.39,80.72a.24.24,0,0,0,.25.26.25.25,0,0,0,.25-.26.25.25,0,1,0-.5,0Z" style="fill:#f59595"></path><path d="M368.61,79.25a.25.25,0,1,0,.5,0,.25.25,0,1,0-.5,0Z" style="fill:#f59595"></path><path d="M360.81,78.36a.26.26,0,0,0,.25.26.26.26,0,0,0,.25-.27.26.26,0,0,0-.25-.26A.26.26,0,0,0,360.81,78.36Z" style="fill:#f59595"></path><path d="M359.05,79.59a.25.25,0,0,0,.25.26.26.26,0,0,0,.25-.26.25.25,0,1,0-.5,0Z" style="fill:#f59595"></path><path d="M357.67,78.27a.26.26,0,0,0,.25.27.27.27,0,0,0,0-.53A.26.26,0,0,0,357.67,78.27Z" style="fill:#f59595"></path><path d="M356,78.88a.26.26,0,1,0,.51,0,.26.26,0,0,0-.25-.26A.26.26,0,0,0,356,78.88Z" style="fill:#f59595"></path><path d="M355.72,76.92a.26.26,0,0,0,.25.27.27.27,0,0,0,0-.53A.26.26,0,0,0,355.72,76.92Z" style="fill:#f59595"></path><path d="M373.83,68.42l3.83,2.11a2.29,2.29,0,0,0-.89-3A2.14,2.14,0,0,0,373.83,68.42Z" style="fill:#263238"></path><path d="M372.74,87.55l-4.09,1.53a2.16,2.16,0,0,0,2.78,1.36A2.28,2.28,0,0,0,372.74,87.55Z" style="fill:#f59595"></path><path d="M357.07,69.91l3.5-2.69a2.13,2.13,0,0,0-3-.47A2.32,2.32,0,0,0,357.07,69.91Z" style="fill:#263238"></path><path d="M358.15,74.67a1.79,1.79,0,1,0,1.79-1.87A1.84,1.84,0,0,0,358.15,74.67Z" style="fill:#263238"></path><polygon points="366.15 72.97 365.56 83.74 359.94 81.82 366.15 72.97" style="fill:#f59595"></polygon><path d="M396.18,354.74V353.1c-1.1.48-3.65,10.21-8.2,14.36-3.62,3.3-8.55,7.11-9.81,10.79s6.87,5.94,10.25,5.34c3.93-.7,10.74-3.46,12.45-6s2.5-6.34,3.89-8.22,4.59-4,5.34-6.15c.42-1.19-.07-3.81-.65-6-.54-2-1.11-4.26-1.8-4.07,0,.25,0,1.25,0,1.25-.84.93-3.14,1.84-5.74,1.94C400.23,356.36,396.16,356,396.18,354.74Z" style="fill:#263238"></path><path d="M356.3,336.58c-.6,0-1.08.86-2.4,2.28a25.24,25.24,0,0,1-6.74,4.86c-4.3,2.15-12.65,5.45-16.43,7.16-2.36,1.06-2.25,3.91.19,5.53s8.33,2.8,15.41,1.21c3.85-.86,8.87-4.42,12-4.23s9.12.15,11.47-1.46,1.4-5.07.74-8c-.72-3.23-1.76-8.18-2.83-8l0,1c-1.38,2.08-8.4,2.94-11.43,1.4Z" style="fill:#263238"></path><path d="M378.35,214.43a42.47,42.47,0,0,1-16-9.16s3.09,5.77,12.25,11.14l-.5,31.54Z" style="fill:#263238"></path></g></g><g id="freepik--character-girl--inject-143"><path d="M168.56,155.65c-18.81-16.92-39.05-38.14-39.28-50.82,8.72-.2,10.73,0,16.43,4.33,5.08,3.86,25.93,30.25,33,34.82,9.36,2.35,26.21,5.09,34.31,5.24a5.86,5.86,0,0,0,3.91-1.44c2.93-2.52,5.21-2.44,8.4-4,2.51-1.24,3.47-2.66,4-2.22.69.56,1.55,2.27.16,4.3A16.2,16.2,0,0,1,226.3,149a32.6,32.6,0,0,0,8.78-2.27c6.73-2.7,10.08-1.86,7.4,7-1.68,5.54-6.48,8.89-20,9.24a103.78,103.78,0,0,1-14.91-.39c-9.9-1.29-21.27-1.49-29.35-2.51A17.82,17.82,0,0,1,168.56,155.65Z" style="fill:#9c5456"></path><path d="M118.53,47.16h2.91a25,25,0,0,1,25,25v29.62a0,0,0,0,1,0,0h-31A21.91,21.91,0,0,1,93.55,79.85V72.14a25,25,0,0,1,25-25Z" style="fill:#263238"></path><path d="M69.67,337.45l1.2-1.24c-.92,1.93-4.74,10.4-4.35,16.88.31,5.15,1.24,11.66-.52,15.36-1.82,3.86-9-1.18-11.06-4.12-2.46-3.41-4.67-8.83-4.26-13.43.29-3.23,1.43-6.29,1.76-8.73s-.54-6.38.49-8.57c.56-1.21,2.86-2.82,4.92-4.07,1.89-1.14,4-2.4,4.35-1.75l-.92.94c-.05,1.31,1,3.7,2.91,5.68C65.41,335.69,68.73,338.43,69.67,337.45Z" style="fill:#407BFF"></path><path d="M69.67,337.45l1.2-1.24c-.92,1.93-4.74,10.4-4.35,16.88.31,5.15,1.24,11.66-.52,15.36-1.82,3.86-9-1.18-11.06-4.12-2.46-3.41-4.67-8.83-4.26-13.43.29-3.23,1.43-6.29,1.76-8.73s-.54-6.38.49-8.57c.56-1.21,2.86-2.82,4.92-4.07,1.89-1.14,4-2.4,4.35-1.75l-.92.94c-.05,1.31,1,3.7,2.91,5.68C65.41,335.69,68.73,338.43,69.67,337.45Z" style="opacity:0.1"></path><path d="M66.86,357.69c-.11-1.58-.25-3.15-.34-4.61-.27-4.53,1.51-10,2.93-13.59.81-2,8.36-12.77,8.36-12.77l-10.54-9-6,11h0l-.21.21,0,.07c-1.33,2.2-2,10.86-2.79,16.19-.52,3.57-.23,9,2.76,12.83C63.91,361.63,66.57,362.22,66.86,357.69Z" style="fill:#9c5456"></path><path d="M133.53,342.16a.81.81,0,0,0-.59.74c-.14,1-.3,2.82-.6,4.5-.41,2.24-.82,5.46-.42,7.24s4.59,4.31,7.41,4.68,7.67,3,9.94,5c2.78,2.44,8.67,4.4,12.63,4.45,4.64.05,8.28-1,9.34-4.4.44-1.41-.72-3.13-6.71-5.87,0,0-3-1.52-4.75-2.56-8.67-5.23-11.65-8.24-14.24-13.69Z" style="fill:#407BFF"></path><path d="M133.53,342.16a.81.81,0,0,0-.59.74c-.14,1-.3,2.82-.6,4.5-.41,2.24-.82,5.46-.42,7.24s4.59,4.31,7.41,4.68,7.67,3,9.94,5c2.78,2.44,8.67,4.4,12.63,4.45,4.64.05,8.28-1,9.34-4.4.44-1.41-.72-3.13-6.71-5.87,0,0-3-1.52-4.75-2.56-8.67-5.23-11.65-8.24-14.24-13.69Z" style="opacity:0.1"></path><path d="M148.85,346.7a15.26,15.26,0,0,1-2.39-7.62l-.19-7.39H133.49l0,10.46,0,1.6c.72,5.08,5.51,5.68,9.51,8.49,2,1.4,9.78,7.38,15,8.35,4.26.78,5.85-.9,6.42-2.1A84.62,84.62,0,0,1,148.85,346.7Z" style="fill:#9c5456"></path><path d="M92.23,265.14a49.54,49.54,0,0,0-13,18.36C75.29,293.53,64,322.92,64,322.92s4.94,8.67,11.66,9.26c0,0,31.91-46.93,35.58-57.9,3.72-5.6,8.37-33.18,11.74-52.26l.12.21,5.74,40.48a86.8,86.8,0,0,0-3.21,14.55c-1,9.93,7.41,58,7.41,58s5.71,3,13.61.35c0,0,1.27-62.68,2.17-74.65,1.5-20.09,2.23-76.75-1.45-88.64l-52.65,2.94,0,0c-4.37,12.62-4.71,20.68-4.15,34.52C91.09,224.08,92.23,265.14,92.23,265.14Z" style="fill:#37474f"></path><path d="M123.07,222.23l3-18.69s12.65-2.63,18.39-8c0,0-6,7.49-15,9.94l-3.36,14.39,2.29,39.73Z" style="fill:#263238"></path><path d="M110.92,105.37h0c-11.81.81-15.52,5.65-15.6,12.76a53.3,53.3,0,0,0,2.83,16.69L103.51,153s-4.44,10.08-8.84,22.32c20.66,11.53,46.45,5.47,52.67-2.94.26-1.79-1.34-15.74-2.32-24.86,3.64-9.12,4.6-14.91,3.06-20.94-2.85-11.2-13.91-22.11-18.8-21.72Z" style="fill:#407BFF"></path><path d="M110.92,105.37h0c-11.81.81-15.52,5.65-15.6,12.76a53.3,53.3,0,0,0,2.83,16.69L103.51,153s-4.44,10.08-8.84,22.32c20.66,11.53,46.45,5.47,52.67-2.94.26-1.79-1.34-15.74-2.32-24.86,3.64-9.12,4.6-14.91,3.06-20.94-2.85-11.2-13.91-22.11-18.8-21.72Z" style="opacity:0.1"></path><path d="M137.14,178.86l-18.21-19.63-23.24-35.3a54.9,54.9,0,0,0,2.46,10.89L103.51,153s-4.44,10.08-8.84,22.32C109.14,183.37,126.13,182.81,137.14,178.86Z" style="fill:#407BFF"></path><path d="M137.14,178.86l-18.21-19.63-23.24-35.3a54.9,54.9,0,0,0,2.46,10.89L103.51,153s-4.44,10.08-8.84,22.32C109.14,183.37,126.13,182.81,137.14,178.86Z" style="opacity:0.1"></path><path d="M93,55.65l3.58,5.74a3.28,3.28,0,0,1-4.66-1A3.56,3.56,0,0,1,93,55.65Z" style="fill:#263238"></path><path d="M89.09,62.2l6.7-1A3.29,3.29,0,0,1,93,65.13,3.55,3.55,0,0,1,89.09,62.2Z" style="fill:#263238"></path><path d="M137.74,57.85c2.79,1.65,6.24,8.68,5.9,23.4-.29,12.48-4.33,15.56-6.36,16.45s-5.95.35-9.76-.29v7.49s5.27,6.12,4.93,9.55-7.6,4.25-12.52.89a31.68,31.68,0,0,1-8.08-8.46V88.78s-2.57,3.43-6.78.64-4.36-9.71-1.92-12.19,7.71-1.7,8.7,1.73c0,0,6.07.22,14.16-4.22A22.72,22.72,0,0,0,137.74,57.85Z" style="fill:#9c5456"></path><path d="M128.31,78.11a1.57,1.57,0,1,1-1.65-1.55A1.6,1.6,0,0,1,128.31,78.11Z" style="fill:#263238"></path><path d="M130.13,88.69l3.64,1.17a1.88,1.88,0,0,1-2.37,1.3A2,2,0,0,1,130.13,88.69Z" style="fill:#7d3336"></path><path d="M141.18,73.3,138,71.09a1.87,1.87,0,0,1,2.64-.54A2,2,0,0,1,141.18,73.3Z" style="fill:#263238"></path><path d="M140.45,77a1.57,1.57,0,1,1-1.65-1.55A1.6,1.6,0,0,1,140.45,77Z" style="fill:#263238"></path><polygon points="132.78 76.08 133.03 85.53 138 83.99 132.78 76.08" style="fill:#7d3336"></polygon><path d="M127.52,97.41c-4-.52-12.27-2.89-13.55-6.16a8.41,8.41,0,0,0,2.89,4.17c2.47,2.11,10.66,4.49,10.66,4.49Z" style="fill:#7d3336"></path></g><g id="freepik--gift-box--inject-143"><polygon points="250 271.42 173.08 226.96 173.08 158.99 171.46 158.06 171.46 135.38 250 180.73 250 271.42" style="fill:#407BFF"></polygon><polygon points="250 271.42 173.08 226.96 173.08 158.99 171.46 158.06 171.46 135.38 250 180.73 250 271.42" style="opacity:0.1"></polygon><polygon points="250 203.4 222.46 187.5 222.45 164.79 220.56 163.73 220.55 186.4 173.08 158.99 173.08 162.25 220.55 189.65 220.54 254.41 222.47 255.52 222.46 190.75 250 206.65 250 203.4" style="opacity:0.15"></polygon><polygon points="250 271.42 326.5 227.28 326.5 159.23 328.54 158.06 328.54 135.38 250 180.73 250 271.42" style="fill:#407BFF"></polygon><polygon points="326.5 159.23 279.45 186.4 279.44 163.73 277.55 164.79 277.55 187.5 250 203.4 250 206.65 277.54 190.76 277.53 255.52 279.46 254.41 279.45 189.67 326.5 162.53 326.5 159.23" style="opacity:0.1"></polygon><polygon points="328.54 135.38 250 90.04 171.46 135.38 250 180.73 328.54 135.38" style="fill:#407BFF"></polygon><polygon points="328.54 135.38 250 90.04 171.46 135.38 250 180.73 328.54 135.38" style="fill:#fff;opacity:0.4"></polygon><polyline points="236.78 136.28 199.24 119.38 200.91 118.38 238.77 135.39" style="opacity:0.15"></polyline><polyline points="263.21 136.28 300.75 119.38 299.07 118.38 261.21 135.39" style="opacity:0.15"></polyline><polygon points="279.44 163.73 251.57 143.04 251.57 143.03 250 141.86 249.99 141.87 249.99 141.86 248.41 143.03 248.42 143.04 220.54 163.73 222.44 164.79 249.99 144.21 277.55 164.79 279.44 163.73" style="opacity:0.15"></polygon><polygon points="299.09 152.39 299.09 245.33 279.46 256.67 279.44 163.73 299.09 152.39" style="fill:#37474f"></polygon><polygon points="279.46 256.67 277.53 255.52 279.46 254.41 279.46 256.67" style="fill:#263238"></polygon><polygon points="200.91 152.39 200.91 245.33 220.54 256.67 220.56 163.73 200.91 152.39" style="fill:#263238"></polygon><polygon points="220.54 256.67 222.47 255.52 220.54 254.41 220.54 256.67"></polygon><polygon points="220.56 163.73 250.01 141.87 261.24 135.38 299.09 118.38 279.46 107.04 250.01 128.9 238.79 135.39 200.91 152.39 220.56 163.73" style="fill:#455a64"></polygon><polygon points="238.79 135.39 236.79 136.28 243.4 139.21 248.43 143.03 250.01 141.86 245.1 138.22 238.79 135.39" style="fill:#263238"></polygon><polygon points="279.44 163.73 245.1 138.22 200.91 118.38 220.55 107.04 254.92 132.55 299.09 152.39 279.44 163.73" style="fill:#455a64"></polygon><path d="M243.84,131.66s-23.07,19.15-60.74,14.79c0,0,16,10.47,35.56,8.1,0,0-2.81,7.14-19.29,15.83,0,0,41.17.38,51.81-33.8Z" style="fill:#37474f"></path><path d="M222.15,166c11.4-4.28,23.84-12.72,29-29.39l-7.34-4.92h0A65.23,65.23,0,0,1,229.3,140h0s8,3.5,16.16,1.34A40.15,40.15,0,0,1,222.15,166Z" style="fill:#263238"></path><path d="M192.69,106.61s4.58-5.36,18.63-2.94c8.48,1.47,22.88,11.35,30,27.81.9,2.08,2.92,2.78,4,4.18a8,8,0,0,0,.82.88l4.45.05c0-15.38-8.63-30.9-16.79-39.88S212.2,83.34,202.62,83a21.5,21.5,0,0,0-9.88,1.9C190.13,92.17,189.05,99.38,192.69,106.61Z" style="fill:#37474f"></path><path d="M240.34,129.41h0s8-2.7,4.71-15.52a54.67,54.67,0,0,1,5.51,22.71l-4.45-.05a8,8,0,0,1-.82-.88c-1.08-1.4-3.1-2.1-4-4.18C241,130.77,240.67,130.09,240.34,129.41Z" style="fill:#263238"></path><path d="M200.89,116.46a32,32,0,0,1-8.2-9.86c-3.65-7.23-2.57-14.44,0-21.73-8.24,3.64-13.16,14.35-15,23-1,4.84-1.12,9-.3,11,2.31,5.44,15.84,27.42,73.79,17.74l-.06-6.09C236.61,129.62,211.27,125.2,200.89,116.46Z" style="fill:#37474f"></path><path d="M192.69,106.61S192,89.67,202.62,83a21.5,21.5,0,0,0-9.88,1.9C190.13,92.17,189.05,99.38,192.69,106.61Z" style="fill:#263238"></path><path d="M256.16,131.66s23.07,19.15,60.74,14.79c0,0-16,10.47-35.56,8.1,0,0,2.81,7.14,19.29,15.83,0,0-41.17.38-51.81-33.8Z" style="fill:#37474f"></path><path d="M254.54,141.32c8.12,2.16,16.16-1.34,16.16-1.34h0l-1.51-.68-.23-.1-1.34-.63-.3-.14-1.22-.61a2.85,2.85,0,0,1-.3-.16c-.39-.19-.76-.39-1.13-.58l-.3-.16-1-.57-.29-.16-.94-.54-.26-.15L261,135l-.24-.14-.76-.48-.22-.14-.67-.44-.2-.13-.58-.39-.17-.12-.49-.34-.15-.11-.39-.28-.13-.1-.29-.22-.13-.1-.18-.13-.12-.09-.06-.06-.07-.05h0l-2.4,1.61-4.94,3.31c10.63,34.18,51.8,33.8,51.81,33.8h0C279.44,169.4,257.19,153.33,254.54,141.32Z" style="fill:#263238"></path><path d="M307.31,106.61s-4.58-5.36-18.63-2.94c-8.48,1.47-22.88,11.35-30,27.81-.9,2.08-2.92,2.78-4,4.18a8,8,0,0,1-.82.88l-4.45.05c0-15.38,8.63-30.9,16.79-39.88S287.8,83.34,297.38,83a21.5,21.5,0,0,1,9.88,1.9C309.87,92.17,311,99.38,307.31,106.61Z" style="fill:#37474f"></path><path d="M259.66,129.41h0s-8-2.7-4.71-15.52a54.67,54.67,0,0,0-5.51,22.71l4.45-.05a8,8,0,0,0,.82-.88c1.08-1.4,3.1-2.1,4-4.18C259,130.77,259.33,130.09,259.66,129.41Z" style="fill:#263238"></path><path d="M299.11,116.46a32,32,0,0,0,8.2-9.86c3.65-7.23,2.57-14.44,0-21.73,8.24,3.64,13.16,14.35,15,23,1,4.84,1.12,9,.3,11-2.31,5.44-15.84,27.42-73.79,17.74l.06-6.09C263.39,129.62,288.73,125.2,299.11,116.46Z" style="fill:#37474f"></path><path d="M307.31,106.61S308,89.67,297.38,83a21.5,21.5,0,0,1,9.88,1.9C309.87,92.17,311,99.38,307.31,106.61Z" style="fill:#263238"></path><path d="M258,132.57a3.34,3.34,0,0,0-2-2.71A15.62,15.62,0,0,0,250,129a14.72,14.72,0,0,0-6.14,1,3.22,3.22,0,0,0-1.81,2.6c-.21,1.82-.34,4.9.86,6.65a10.61,10.61,0,0,0,7.11,2.55,10.45,10.45,0,0,0,7.07-2.55C258.28,137.47,258.16,134.39,258,132.57Z" style="fill:#455a64"></path></g><path id="freepik--girl-arm--inject-143" d="M116.75,165.94c-20.65-31.15-30.63-56.76-13.9-59,5.11,1.19,8.71,7.08,13.17,20.21,0,0,9.15,19.82,13.26,28.3,7.7,6.17,22.53,20,30,23.13,1.33.54,3.28-.62,4.63-1.1,3.64-1.27,5.74-.38,9.29-.69,2.78-.24,4.2-1.21,4.54-.61a3.06,3.06,0,0,1-1,4.17,7.44,7.44,0,0,1-3.68,1.48s1.68,1.27,8.14,1.25c7.25,0,10.07,1.93,4.35,9.21-3.59,4.55-9.27,5.93-22,1.35a103.9,103.9,0,0,1-13.74-5.78c-8.75-4.8-5.65-2.79-12.53-7.15C131.71,177.18,118.76,169,116.75,165.94Z" style="fill:#9c5456"></path><g id="freepik--boy-arm--inject-143"><path d="M383.25,165.94c24.56-33.44,33.64-56.29,16.9-58.53-5.1,1.19-8.71,7.09-13.17,20.22,0,0-12.15,19.35-16.25,27.83-7.71,6.17-22.54,20-30,23.13-1.32.54-3.28-.62-4.63-1.1-3.64-1.27-5.74-.38-9.29-.69-2.78-.24-4.2-1.21-4.54-.61a3.06,3.06,0,0,0,1,4.17,7.44,7.44,0,0,0,3.68,1.48s-1.68,1.27-8.14,1.25c-7.24,0-10.06,1.93-4.35,9.21,3.59,4.55,9.27,5.93,22,1.35a103.9,103.9,0,0,0,13.74-5.78c8.76-4.8,5.65-2.79,12.53-7.15C368.3,177.18,381.1,168.87,383.25,165.94Z" style="fill:#ffb3b2"></path><path d="M398,106.85s5.93,0,8.92,2.92,4.11,8.29,1.09,16.54-11.27,21.75-11.27,21.75-9.72.53-18.36-8.23L387,123.77S390.33,111.68,398,106.85Z" style="fill:#407BFF"></path><path d="M398,106.85s5.93,0,8.92,2.92,4.11,8.29,1.09,16.54-11.27,21.75-11.27,21.75-9.72.53-18.36-8.23L387,123.77S390.33,111.68,398,106.85Z" style="opacity:0.1"></path></g></g></svg>